<svg width="473" height="127" viewBox="0 0 473 127" fill="none" xmlns="http://www.w3.org/2000/svg">
<g clip-path="url(#clip0_172_1073)">
<g clip-path="url(#clip1_172_1073)">
<g clip-path="url(#clip2_172_1073)">
<g clip-path="url(#clip3_172_1073)">
<path d="M150.081 4.70194C150.081 2.10513 148.882 0 147.403 0C145.924 0 144.725 2.10513 144.725 4.70194V122.977C144.725 125.574 145.924 127.679 147.403 127.679C148.882 127.679 150.081 125.574 150.081 122.977V4.70194Z" fill="#EEEEEE"/>
<g clip-path="url(#clip4_172_1073)">
<g clip-path="url(#clip5_172_1073)">
<g clip-path="url(#clip6_172_1073)">
<g clip-path="url(#clip7_172_1073)">
<path d="M195.814 50.7489L187.676 40.0534H198.312L202.83 45.7805L208.753 52.5489L217.863 63.7204H205.956L199.584 56.1488L195.814 50.7489ZM218.222 32.4519C218.222 38.4022 217.075 43.445 214.782 47.5804C212.478 51.7158 209.362 54.859 205.432 57.0115C201.513 59.164 197.12 60.2395 192.254 60.2395C187.367 60.2395 182.964 59.1536 179.045 56.9818C175.136 54.8204 172.034 51.6757 169.741 47.5507C167.448 43.4152 166.3 38.3828 166.3 32.4519C166.3 26.5017 167.448 21.4544 169.741 17.3086C172.034 13.1731 175.136 10.0344 179.045 7.89231C182.964 5.73982 187.367 4.66431 192.254 4.66431C197.12 4.66431 201.513 5.73982 205.432 7.89231C209.362 10.0344 212.478 13.1731 214.782 17.3086C217.075 21.4544 218.222 26.5017 218.222 32.4519ZM204.789 32.4519C204.789 28.9309 204.291 25.9558 203.293 23.5266C202.287 21.0974 200.851 19.2573 198.985 18.0077C197.12 16.7582 194.876 16.1334 192.254 16.1334C189.651 16.1334 187.412 16.7582 185.537 18.0077C183.652 19.2573 182.212 21.0974 181.214 23.5266C180.216 25.9558 179.718 28.9309 179.718 32.4519C179.718 35.973 180.216 38.9481 181.214 41.3773C182.212 43.8065 183.652 45.6466 185.537 46.8961C187.412 48.1457 189.651 48.7705 192.254 48.7705C194.876 48.7705 197.12 48.1457 198.985 46.8961C200.851 45.6466 202.287 43.8065 203.293 41.3773C204.291 38.9481 204.789 35.973 204.789 32.4519ZM258.865 39.1608V5.40809H271.984V40.2914C271.984 44.3271 271.022 47.8378 269.097 50.8233C267.163 53.8088 264.47 56.1145 261.019 57.7404C257.568 59.3663 253.555 60.18 248.977 60.18C244.36 60.18 240.327 59.3663 236.876 57.7404C233.425 56.1145 230.743 53.8088 228.828 50.8233C226.913 47.8378 225.956 44.3271 225.956 40.2914V5.40809H239.105V39.1608C239.105 41.0247 239.519 42.6863 240.346 44.1441C241.164 45.6124 242.316 46.7578 243.802 47.5804C245.287 48.4134 247.013 48.83 248.977 48.83C250.952 48.83 252.677 48.4134 254.153 47.5804C255.63 46.7578 256.786 45.6124 257.624 44.1441C258.451 42.6863 258.865 41.0247 258.865 39.1608ZM280.226 5.40809H293.36V59.4958H280.226V5.40809ZM344.444 59.4958H301.408V52.0431L327.84 16.0144H301.438V5.40809H344.474V12.8459L318.042 48.8746H344.444V59.4958Z" fill="#EEEEEE"/>
<path d="M192.568 123.015H179.928L164.101 68.9269H178.626L186.839 104.361H187.287L196.667 68.9269H208.514L217.878 104.45H218.327L226.569 68.9269H241.064L225.268 123.015H212.598L202.8 90.2139H202.366L192.568 123.015ZM246.509 68.9269H259.658V123.015H246.509V68.9269ZM310.742 123.015H267.706V115.562L294.138 79.5332H267.736V68.9269H310.757V76.3647L284.34 112.393H310.742V123.015ZM343.322 82.5529L330.577 123.015H316.441L334.796 68.9269H352.298L370.652 123.015H356.531L343.756 82.5529H343.322ZM328.693 111.664V101.728H358.221V111.664H328.693ZM389.679 123.015H376.531V68.9269H398.999C403.068 68.9269 406.587 69.6513 409.56 71.0987C412.522 72.5565 414.81 74.6347 416.426 77.3316C418.031 80.039 418.834 83.2417 418.834 86.9412C418.834 90.6899 418.011 93.8688 416.366 96.4765C414.72 99.0946 412.382 101.088 409.35 102.456C406.329 103.815 402.743 104.494 398.595 104.494H384.384V94.2005H396.157C398.142 94.2005 399.802 93.9372 401.138 93.4121C402.474 92.8959 403.486 92.1075 404.175 91.0469C404.863 89.9759 405.207 88.6073 405.207 86.9412C405.207 85.2648 404.863 83.8769 404.175 82.7761C403.486 81.6753 402.469 80.8467 401.123 80.2918C399.777 79.737 398.121 79.4588 396.157 79.4588H389.679V123.015ZM393.075 98.2913H407.151L420.704 123.015H406.358L393.075 98.2913ZM446.149 123.015H426.029V68.9269H446.119C451.664 68.9269 456.44 70.0024 460.449 72.1549C464.458 74.3163 467.55 77.4164 469.724 81.4521C471.908 85.4983 473 90.3284 473 95.941C473 101.574 471.912 106.418 469.739 110.474C467.574 114.521 464.484 117.619 460.464 119.772C456.445 121.933 451.673 123.015 446.149 123.015ZM439.178 80.0687V111.873H445.64C448.681 111.873 451.26 111.357 453.374 110.326C455.498 109.295 457.103 107.614 458.191 105.283C459.278 102.943 459.821 99.828 459.821 95.941C459.821 92.054 459.272 88.9494 458.176 86.6288C457.079 84.3187 455.464 82.6466 453.329 81.6158C451.194 80.5849 448.568 80.0687 445.446 80.0687H439.178Z" fill="#EEEEEE"/>
</g>
</g>
</g>
</g>
<g clip-path="url(#clip8_172_1073)">
<g clip-path="url(#clip9_172_1073)">
<path d="M91.2278 31.3113C90.046 30.1361 88.4708 29.4893 86.7937 29.4893C85.1151 29.4893 83.5415 30.1361 82.3613 31.3098L76.8191 36.8211C74.3756 39.2526 74.3756 43.2069 76.8191 45.6384L82.3613 51.1482C83.5415 52.3218 85.1167 52.9687 86.7937 52.9687C88.4708 52.9687 90.046 52.3218 91.2262 51.1482L96.7668 45.6384C99.2104 43.2084 99.2104 39.2526 96.7668 36.8211L91.2278 31.3113Z" fill="#00ADB5"/>
<path d="M71.8302 50.5964C70.65 49.4227 69.0748 48.7759 67.3977 48.7759C65.7206 48.7759 64.1454 49.4227 62.9652 50.5964L2.00752 111.215C0.827303 112.389 0.176849 113.955 0.176849 115.623C0.176849 117.292 0.82887 118.857 2.00909 120.031L7.55127 125.542C8.73149 126.716 10.3067 127.361 11.9838 127.361C13.6608 127.361 15.236 126.716 16.4162 125.541L77.3739 64.9234C79.8174 62.4919 79.8174 58.5377 77.3739 56.1077L71.8302 50.5964ZM69.0591 62.1693L16.4147 114.52C15.9554 114.976 15.3536 115.204 14.7517 115.204C14.1498 115.204 13.548 114.976 13.0887 114.52C12.1703 113.606 12.1703 112.127 13.0887 111.214L65.7332 58.8634C66.6516 57.9501 68.1391 57.9501 69.0575 58.8634C69.9776 59.7768 69.9776 61.2575 69.0591 62.1693Z" fill="#00ADB5"/>
<path d="M65.7347 23.5944C66.194 24.0511 66.7958 24.2802 67.3977 24.2802C67.9996 24.2802 68.6014 24.0527 69.0607 23.596C69.9791 22.6842 69.9791 21.2019 69.0607 20.2901L55.2052 6.51168C54.2867 5.59832 52.7993 5.59832 51.8809 6.51168C50.9624 7.42349 50.9624 8.90576 51.8809 9.81757L65.7347 23.5944Z" fill="#00ADB5"/>
<path d="M106.188 24.2803C106.79 24.2803 107.392 24.0527 107.851 23.596L121.705 9.81916C122.624 8.90735 122.624 7.42508 121.705 6.51327C120.787 5.59991 119.299 5.59991 118.381 6.51327L104.527 20.2901C103.608 21.2019 103.608 22.6842 104.527 23.596C104.985 24.0511 105.586 24.2803 106.188 24.2803Z" fill="#00ADB5"/>
<path d="M107.85 58.8635C106.931 57.9501 105.444 57.9501 104.525 58.8635C103.607 59.7753 103.607 61.2576 104.525 62.1694L118.379 75.9462C118.838 76.4029 119.44 76.6305 120.042 76.6305C120.644 76.6305 121.246 76.4029 121.705 75.9462C122.624 75.0329 122.624 73.5537 121.705 72.6404L107.85 58.8635Z" fill="#00ADB5"/>
<path d="M86.7937 16.6834C88.0915 16.6834 89.1448 15.6375 89.1448 14.3454V2.65559C89.1448 1.36348 88.0915 0.317627 86.7937 0.317627C85.496 0.317627 84.4427 1.36348 84.4427 2.65559V14.3454C84.4427 15.636 85.4944 16.6834 86.7937 16.6834Z" fill="#00ADB5"/>
<path d="M128.354 41.6466H116.597C115.299 41.6466 114.246 42.6925 114.246 43.9846C114.246 45.2767 115.299 46.3225 116.597 46.3225H128.354C129.652 46.3225 130.705 45.2767 130.705 43.9846C130.705 42.6925 129.652 41.6466 128.354 41.6466Z" fill="#00ADB5"/>
<path d="M86.7937 71.2858C85.496 71.2858 84.4427 72.3332 84.4427 73.6237V85.3136C84.4427 86.6041 85.496 87.6515 86.7937 87.6515C88.0915 87.6515 89.1448 86.6041 89.1448 85.3136V73.6237C89.1448 72.3332 88.0915 71.2858 86.7937 71.2858Z" fill="#00ADB5"/>
<path d="M45.2306 46.3225H56.9873C58.2866 46.3225 59.3383 45.2767 59.3383 43.9846C59.3383 42.6925 58.2866 41.6466 56.9873 41.6466H45.2306C43.9312 41.6466 42.8795 42.6925 42.8795 43.9846C42.8795 45.2767 43.9312 46.3225 45.2306 46.3225Z" fill="#00ADB5"/>
</g>
</g>
</g>
</g>
</g>
</g>
<defs>
<clipPath id="clip0_172_1073">
<rect width="473" height="127" fill="white"/>
</clipPath>
<clipPath id="clip1_172_1073">
<rect width="473" height="127" fill="white" transform="translate(-0.286667 0.238159)"/>
</clipPath>
<clipPath id="clip2_172_1073">
<rect width="472.823" height="127.679" fill="white" transform="translate(0.176849)"/>
</clipPath>
<clipPath id="clip3_172_1073">
<rect width="472.823" height="127.679" fill="white" transform="translate(0.176849)"/>
</clipPath>
<clipPath id="clip4_172_1073">
<rect width="308.898" height="127.044" fill="white" transform="translate(164.101 0.317627)"/>
</clipPath>
<clipPath id="clip5_172_1073">
<rect width="308.898" height="127.044" fill="white" transform="translate(164.101 0.317627)"/>
</clipPath>
<clipPath id="clip6_172_1073">
<rect width="308.898" height="127.044" fill="white" transform="translate(164.101 0.317627)"/>
</clipPath>
<clipPath id="clip7_172_1073">
<rect width="308.898" height="127.044" fill="white" transform="translate(164.101 0.317627)"/>
</clipPath>
<clipPath id="clip8_172_1073">
<rect width="130.528" height="127.044" fill="white" transform="translate(0.176849 0.317627)"/>
</clipPath>
<clipPath id="clip9_172_1073">
<rect width="130.528" height="127.044" fill="white" transform="translate(0.176849 0.317627)"/>
</clipPath>
</defs>
</svg>
