<svg width="80" height="77" viewBox="0 0 80 77" fill="none" xmlns="http://www.w3.org/2000/svg">
<g clip-path="url(#clip0_171_945)">
<g clip-path="url(#clip1_171_945)">
<path d="M55.3538 18.984C54.6368 18.2715 53.681 17.8793 52.6634 17.8793C51.6449 17.8793 50.69 18.2715 49.9739 18.983L46.6111 22.3246C45.1285 23.7988 45.1285 26.1963 46.6111 27.6705L49.9739 31.0111C50.69 31.7227 51.6458 32.1148 52.6634 32.1148C53.681 32.1148 54.6368 31.7227 55.3529 31.0111L58.7147 27.6705C60.1974 26.1972 60.1974 23.7988 58.7147 22.3246L55.3538 18.984Z" fill="#00ADB5"/>
<path d="M43.5841 30.6765C42.8679 29.9649 41.9122 29.5728 40.8946 29.5728C39.877 29.5728 38.9212 29.9649 38.2051 30.6765L1.21809 67.4296C0.501973 68.1412 0.1073 69.091 0.1073 70.1021C0.1073 71.1142 0.502923 72.063 1.21904 72.7746L4.58184 76.1161C5.29796 76.8277 6.25373 77.219 7.27132 77.219C8.28891 77.219 9.24469 76.8277 9.9608 76.1152L46.9478 39.363C48.4305 37.8888 48.4305 35.4913 46.9478 34.0181L43.5841 30.6765ZM41.9027 37.6932L9.95985 69.4331C9.6812 69.7099 9.31601 69.8479 8.95082 69.8479C8.58563 69.8479 8.22044 69.7099 7.94179 69.4331C7.38449 68.8793 7.38449 67.9825 7.94179 67.4287L39.8846 35.6888C40.4419 35.135 41.3444 35.135 41.9017 35.6888C42.46 36.2426 42.46 37.1404 41.9027 37.6932Z" fill="#00ADB5"/>
<path d="M39.8855 14.3052C40.1642 14.5821 40.5294 14.721 40.8946 14.721C41.2598 14.721 41.625 14.5831 41.9036 14.3062C42.4609 13.7534 42.4609 12.8547 41.9036 12.3018L33.4966 3.94798C32.9393 3.39421 32.0368 3.39421 31.4795 3.94798C30.9222 4.50081 30.9222 5.39951 31.4795 5.95234L39.8855 14.3052Z" fill="#00ADB5"/>
<path d="M64.4313 14.7211C64.7965 14.7211 65.1617 14.5831 65.4403 14.3062L73.8464 5.95332C74.4037 5.40049 74.4037 4.50179 73.8464 3.94896C73.2891 3.39519 72.3866 3.39519 71.8293 3.94896L63.4232 12.3019C62.8659 12.8547 62.8659 13.7534 63.4232 14.3062C63.7009 14.5822 64.0661 14.7211 64.4313 14.7211Z" fill="#00ADB5"/>
<path d="M65.4394 35.6888C64.8821 35.1351 63.9796 35.1351 63.4223 35.6888C62.865 36.2417 62.865 37.1404 63.4223 37.6932L71.8284 46.0461C72.107 46.323 72.4722 46.4609 72.8374 46.4609C73.2026 46.4609 73.5678 46.323 73.8464 46.0461C74.4037 45.4923 74.4037 44.5955 73.8464 44.0417L65.4394 35.6888Z" fill="#00ADB5"/>
<path d="M52.6634 10.1151C53.4508 10.1151 54.0899 9.48102 54.0899 8.69761V1.61007C54.0899 0.826664 53.4508 0.192566 52.6634 0.192566C51.876 0.192566 51.2369 0.826664 51.2369 1.61007V8.69761C51.2369 9.48007 51.875 10.1151 52.6634 10.1151Z" fill="#00ADB5"/>
<path d="M77.8806 25.2503H70.747C69.9596 25.2503 69.3205 25.8844 69.3205 26.6678C69.3205 27.4512 69.9596 28.0853 70.747 28.0853H77.8806C78.6681 28.0853 79.3071 27.4512 79.3071 26.6678C79.3071 25.8844 78.6681 25.2503 77.8806 25.2503Z" fill="#00ADB5"/>
<path d="M52.6634 43.2205C51.876 43.2205 51.2369 43.8556 51.2369 44.638V51.7256C51.2369 52.508 51.876 53.1431 52.6634 53.1431C53.4508 53.1431 54.0899 52.508 54.0899 51.7256V44.638C54.0899 43.8556 53.4508 43.2205 52.6634 43.2205Z" fill="#00ADB5"/>
<path d="M27.4444 28.0853H34.5779C35.3663 28.0853 36.0045 27.4512 36.0045 26.6678C36.0045 25.8844 35.3663 25.2503 34.5779 25.2503H27.4444C26.656 25.2503 26.0178 25.8844 26.0178 26.6678C26.0178 27.4512 26.656 28.0853 27.4444 28.0853Z" fill="#00ADB5"/>
</g>
</g>
<defs>
<clipPath id="clip0_171_945">
<rect width="79.1999" height="77.0264" fill="white" transform="translate(0.1073 0.192566)"/>
</clipPath>
<clipPath id="clip1_171_945">
<rect width="79.1999" height="77.0264" fill="white" transform="translate(0.1073 0.192566)"/>
</clipPath>
</defs>
</svg>
